<svg id="Camada_1" data-name="Camada 1" xmlns="http://www.w3.org/2000/svg" viewBox="0 0 563.69 144.99"><defs><style>.cls-1{fill:#fff;}.cls-2{fill:#ffd664;}</style></defs><title>edutivo_logo2</title><path class="cls-1" d="M204.89,135a2.89,2.89,0,0,1-1.83,2.69Q184.12,145,166.56,145q-20.53,0-31.64-12.7t-11.1-31.1q0-18.25,11.18-30.88T166.56,57.7a88.15,88.15,0,0,1,12.64,1,1.17,1.17,0,0,0,1.35-1.15V30a2.87,2.87,0,0,1,2.69-2.87l18.59-1.16a2.87,2.87,0,0,1,3,2.68q0,0.09,0,.19V135h0Zm-50.7-18.57q4.71,6.23,13.08,6.23a31.71,31.71,0,0,0,11.35-1.93A2.9,2.9,0,0,0,180.5,118V84.48a2.85,2.85,0,0,0-2.07-2.76,42.72,42.72,0,0,0-11.17-1.52,15.34,15.34,0,0,0-13.08,6.39,24.89,24.89,0,0,0-4.72,15.21,23.53,23.53,0,0,0,4.72,14.6" transform="translate(-0.01 -0.01)"/><path class="cls-1" d="M291.89,134.67a2.89,2.89,0,0,1-1.83,2.69q-18.92,7.34-36,7.33a42.59,42.59,0,0,1-27.17-9.58q-12.09-9.58-12.09-24.49v-48a2.87,2.87,0,0,1,2.69-2.87l18.59-1.16a2.87,2.87,0,0,1,3,2.68q0,0.09,0,.19v42.73q0,7.45,4.41,12.17t12,4.72a48.54,48.54,0,0,0,10.71-1.51,1.7,1.7,0,0,0,1.3-1.65V62.67a2.87,2.87,0,0,1,2.69-2.87l18.59-1.16a2.87,2.87,0,0,1,3.05,2.67q0,0.1,0,.2v73.16Z" transform="translate(-0.01 -0.01)"/><path class="cls-1" d="M347,121.11a2.88,2.88,0,0,1,3.12,2.62q0,0.12,0,.24v17.26q0,0.91-4,1.68a36.6,36.6,0,0,1-6.69.76q-15.21,0-26.09-8.44t-10.87-23.81V43.5a2.87,2.87,0,0,1,2.69-2.87l18.59-1.16a2.87,2.87,0,0,1,3,2.68q0,0.09,0,.19v15a1.09,1.09,0,0,0,1.09,1.09h16.7a2.87,2.87,0,0,1,2.87,2.87q0,0.11,0,.22l-1.08,14a2.87,2.87,0,0,1-2.86,2.65h-15.3a1.36,1.36,0,0,0-1.36,1.36v27.23q0,6.54,3.88,10.5a13.17,13.17,0,0,0,9.81,4q4.05,0,6.45-.19" transform="translate(-0.01 -0.01)"/><path class="cls-1" d="M380,143.63H361.36a2.87,2.87,0,0,1-2.87-2.87V61.32a2.87,2.87,0,0,1,2.87-2.87H380a2.87,2.87,0,0,1,2.87,2.87v79.43a2.87,2.87,0,0,1-2.87,2.87" transform="translate(-0.01 -0.01)"/><path class="cls-1" d="M476,58.45a2.88,2.88,0,0,1,2.84,3.32,145,145,0,0,1-7.09,26.72,278.74,278.74,0,0,1-10.83,26.85q-4.65,9.6-13.34,26.71a2.89,2.89,0,0,1-2.57,1.58H424a2.89,2.89,0,0,1-2.57-1.58q-8.69-17.11-13.34-26.71a279,279,0,0,1-10.88-26.85,145.1,145.1,0,0,1-7.09-26.72,2.88,2.88,0,0,1,2.85-3.32h18.52a2.88,2.88,0,0,1,2.85,2.5q3.25,23,19.47,56.8a0.82,0.82,0,0,0,1.48,0q16.07-34,19.33-56.79a2.88,2.88,0,0,1,2.85-2.5H476Z" transform="translate(-0.01 -0.01)"/><path class="cls-1" d="M552.52,132.11Q541.34,144.74,521,144.74q-20.84,0-32-12.62t-11.18-31.18q0-18.25,11.18-30.88t32-12.62q20.38,0,31.56,12.7t11.18,31.11q0,18.25-11.18,30.88M533.66,85.89q-4.34-6.08-12.7-6.08-8.82,0-13.16,6.08t-4.33,15.06A25.73,25.73,0,0,0,507.8,116q4.34,6.23,13.16,6.23,8.37,0,12.7-6.31A26.34,26.34,0,0,0,538,100.64a24.77,24.77,0,0,0-4.33-14.76" transform="translate(-0.01 -0.01)"/><path class="cls-1" d="M361.53,48.18a13.06,13.06,0,0,1-3.8-9.51,12.52,12.52,0,0,1,3.8-9,12.67,12.67,0,0,1,17.91-.34l0.34,0.34a12.52,12.52,0,0,1,3.8,9,13.06,13.06,0,0,1-3.8,9.51,12.68,12.68,0,0,1-17.93.32l-0.32-.32" transform="translate(-0.01 -0.01)"/><path class="cls-1" d="M99.18,62.2a34.09,34.09,0,0,1,12.71,12.62,58.09,58.09,0,0,1,6.31,16.57,59.36,59.36,0,0,1,1.32,14.83,2.89,2.89,0,0,1-2.88,2.81H64.35a0.83,0.83,0,0,0-.79,1.08,20.44,20.44,0,0,0,6.12,9.11,17.53,17.53,0,0,0,11.79,4,41.91,41.91,0,0,0,8.67-.68,38.61,38.61,0,0,0,5.74-1.9,2.88,2.88,0,0,1,3.48,1.07l8.75,13.18a2.88,2.88,0,0,1-.83,4l-0.17.1q-11,6.26-26.59,6a48.61,48.61,0,0,1-19.31-3.65,35.6,35.6,0,0,1-13.68-9.88,44.23,44.23,0,0,1-7.83-14A50.72,50.72,0,0,1,37,100.88Q37,82.63,48.14,70T80.07,57.39a37,37,0,0,1,19.08,4.87M93.89,92.11a9.85,9.85,0,0,1-.3-1.37,14,14,0,0,0-1.22-3.12,16.18,16.18,0,0,0-2.59-3.88,13.83,13.83,0,0,0-4.49-3,16,16,0,0,0-6.77-1.37q-12,0-15.38,11.73a0.83,0.83,0,0,0,.64,1l0.16,0H93.89Z" transform="translate(-0.01 -0.01)"/><path class="cls-2" d="M3.66,89.69a11.88,11.88,0,1,0,16.8.35,11.88,11.88,0,0,0-16.8-.35h0" transform="translate(-0.01 -0.01)"/><path class="cls-2" d="M40.89,49.94L35.36,36.31A11.88,11.88,0,1,0,18.42,51.55l13,7.27h0a6.73,6.73,0,0,0,10.22-5.61,8.39,8.39,0,0,0-.77-3.27" transform="translate(-0.01 -0.01)"/><path class="cls-2" d="M88.43,14.92a11.88,11.88,0,1,0-22.94.14s4.57,20.09,4.72,20.67,0.59,3.46,1.87,4.8a6.73,6.73,0,0,0,9.52.2h0c1.34-1.28,1.79-3.41,2.07-4.71s4.76-21.11,4.76-21.11" transform="translate(-0.01 -0.01)"/></svg>