<svg id="Camada_1" data-name="Camada 1" xmlns="http://www.w3.org/2000/svg" viewBox="0 0 563.7 145"><defs><style>.cls-1{fill:#555ae0;}.cls-2{fill:#ffd664;}</style></defs><title>LogoEdutivo</title><path class="cls-1" d="M545,451.86a2.89,2.89,0,0,1-1.83,2.69q-18.94,7.34-36.5,7.34-20.53,0-31.64-12.7t-11.1-31.1q0-18.25,11.18-30.88t31.56-12.62a88.15,88.15,0,0,1,12.64,1,1.17,1.17,0,0,0,1.35-1.15V346.86a2.87,2.87,0,0,1,2.69-2.87l18.59-1.16a2.87,2.87,0,0,1,3.05,2.87V451.86ZM494.3,433.29q4.71,6.23,13.08,6.23a31.71,31.71,0,0,0,11.35-1.93,2.9,2.9,0,0,0,1.88-2.71V401.37a2.85,2.85,0,0,0-2.07-2.76,42.72,42.72,0,0,0-11.17-1.52,15.34,15.34,0,0,0-13.08,6.39,24.89,24.89,0,0,0-4.72,15.21,23.53,23.53,0,0,0,4.72,14.6" transform="translate(-340.11 -316.89)"/><path class="cls-1" d="M632,451.56a2.89,2.89,0,0,1-1.83,2.69q-18.92,7.34-36,7.33A42.59,42.59,0,0,1,567,452q-12.09-9.58-12.09-24.49v-48a2.87,2.87,0,0,1,2.69-2.87l18.59-1.16a2.87,2.87,0,0,1,3.05,2.87v42.73q0,7.45,4.41,12.17t12,4.72a48.54,48.54,0,0,0,10.71-1.51,1.7,1.7,0,0,0,1.3-1.65V379.56a2.87,2.87,0,0,1,2.69-2.87l18.59-1.16A2.87,2.87,0,0,1,632,378.4v73.16Z" transform="translate(-340.11 -316.89)"/><path class="cls-1" d="M687.1,438a2.88,2.88,0,0,1,3.13,2.86v17.26q0,0.91-4,1.68a36.6,36.6,0,0,1-6.69.76q-15.21,0-26.09-8.44t-10.87-23.81V360.39a2.87,2.87,0,0,1,2.69-2.87l18.59-1.16a2.87,2.87,0,0,1,3.05,2.87v15a1.09,1.09,0,0,0,1.09,1.09H684.7a2.87,2.87,0,0,1,2.86,3.09l-1.08,14a2.87,2.87,0,0,1-2.86,2.65H668.32a1.36,1.36,0,0,0-1.36,1.36v27.23q0,6.54,3.88,10.5a13.17,13.17,0,0,0,9.81,4q4.05,0,6.45-.19" transform="translate(-340.11 -316.89)"/><path class="cls-1" d="M720.06,460.52H701.47a2.87,2.87,0,0,1-2.87-2.87V378.21a2.87,2.87,0,0,1,2.87-2.87h18.59a2.87,2.87,0,0,1,2.87,2.87v79.43a2.87,2.87,0,0,1-2.87,2.87" transform="translate(-340.11 -316.89)"/><path class="cls-1" d="M816.08,375.34a2.88,2.88,0,0,1,2.84,3.32,145,145,0,0,1-7.09,26.72A278.75,278.75,0,0,1,801,432.23q-4.65,9.6-13.34,26.71a2.89,2.89,0,0,1-2.57,1.58h-21a2.89,2.89,0,0,1-2.57-1.58q-8.69-17.11-13.34-26.71a279,279,0,0,1-10.88-26.85,145.1,145.1,0,0,1-7.09-26.72,2.88,2.88,0,0,1,2.85-3.32h18.52a2.88,2.88,0,0,1,2.85,2.5q3.25,23,19.47,56.8a0.82,0.82,0,0,0,1.48,0q16.07-34,19.33-56.79a2.88,2.88,0,0,1,2.85-2.5h18.53Z" transform="translate(-340.11 -316.89)"/><path class="cls-1" d="M892.63,449q-11.18,12.63-31.56,12.63-20.84,0-32-12.62t-11.18-31.18q0-18.25,11.18-30.88t32-12.62q20.38,0,31.56,12.7t11.18,31.11q0,18.25-11.18,30.88m-18.86-46.24q-4.34-6.08-12.7-6.08-8.82,0-13.16,6.08t-4.33,15.06a25.73,25.73,0,0,0,4.33,15.06q4.34,6.23,13.16,6.23,8.37,0,12.7-6.31a26.34,26.34,0,0,0,4.33-15.29,24.77,24.77,0,0,0-4.33-14.76" transform="translate(-340.11 -316.89)"/><path class="cls-1" d="M701.64,365.07a13.06,13.06,0,0,1-3.8-9.51,12.52,12.52,0,0,1,3.8-9,12.67,12.67,0,0,1,18.25,0,12.52,12.52,0,0,1,3.8,9,13.06,13.06,0,0,1-3.8,9.51,12.68,12.68,0,0,1-18.25,0" transform="translate(-340.11 -316.89)"/><path class="cls-1" d="M439.29,379.09A34.09,34.09,0,0,1,452,391.71a58.09,58.09,0,0,1,6.31,16.57,59.36,59.36,0,0,1,1.32,14.83,2.89,2.89,0,0,1-2.88,2.81H404.46a0.83,0.83,0,0,0-.79,1.08,20.44,20.44,0,0,0,6.12,9.11,17.53,17.53,0,0,0,11.79,4,41.91,41.91,0,0,0,8.67-.68,38.61,38.61,0,0,0,5.74-1.9,2.88,2.88,0,0,1,3.48,1.07l8.75,13.18a2.88,2.88,0,0,1-1,4.09q-11,6.26-26.59,6a48.61,48.61,0,0,1-19.31-3.65,35.6,35.6,0,0,1-13.68-9.88,44.23,44.23,0,0,1-7.83-14,50.72,50.72,0,0,1-2.66-16.57q0-18.25,11.1-30.87t31.93-12.62a37,37,0,0,1,19.08,4.87M434,409a9.85,9.85,0,0,1-.3-1.37,14,14,0,0,0-1.22-3.12,16.18,16.18,0,0,0-2.59-3.88,13.83,13.83,0,0,0-4.49-3,16,16,0,0,0-6.77-1.37q-11.95,0-15.38,11.73a0.83,0.83,0,0,0,.8,1H434Z" transform="translate(-340.11 -316.89)"/><path class="cls-2" d="M343.77,406.58a11.88,11.88,0,1,0,16.8.35,11.88,11.88,0,0,0-16.8-.35" transform="translate(-340.11 -316.89)"/><path class="cls-2" d="M381,366.83l-5.53-13.63a11.88,11.88,0,1,0-16.94,15.24l13,7.27h0a6.73,6.73,0,0,0,10.22-5.61,8.39,8.39,0,0,0-.77-3.27" transform="translate(-340.11 -316.89)"/><path class="cls-2" d="M428.54,331.81a11.88,11.88,0,1,0-22.94.14s4.57,20.09,4.72,20.67,0.59,3.46,1.87,4.8a6.73,6.73,0,0,0,9.52.2c1.34-1.28,1.79-3.41,2.07-4.71s4.76-21.11,4.76-21.11" transform="translate(-340.11 -316.89)"/></svg>